<svg xmlns="http://www.w3.org/2000/svg" width="32" height="32">
    <path style="stroke:none;fill-rule:nonzero;fill:#000;fill-opacity:1" d="M28 0H4C1.79 0 0 1.79 0 4v24c0 2.21 1.79 4 4 4h24c2.21 0 4-1.79 4-4V4c0-2.21-1.79-4-4-4ZM2 7.715C2 6.77 2.895 6 4 6h24c1.105 0 2 .77 2 1.715v20.57C30 29.23 29.105 30 28 30H4c-1.105 0-2-.77-2-1.715Zm0 0"/>
    <path style="stroke:none;fill-rule:nonzero;fill:#000;fill-opacity:1" d="M13 14a1.999 1.999 0 1 0 0-4 1.999 1.999 0 1 0 0 4Zm6 0a1.999 1.999 0 1 0 0-4 1.999 1.999 0 1 0 0 4Zm6 0a1.999 1.999 0 1 0 0-4 1.999 1.999 0 1 0 0 4ZM7 20a1.999 1.999 0 1 0 0-4 1.999 1.999 0 1 0 0 4Zm6 0a1.999 1.999 0 1 0 0-4 1.999 1.999 0 1 0 0 4Zm6 0a1.999 1.999 0 1 0 0-4 1.999 1.999 0 1 0 0 4Zm6 0a1.999 1.999 0 1 0 0-4 1.999 1.999 0 1 0 0 4ZM7 26a1.999 1.999 0 1 0 0-4 1.999 1.999 0 1 0 0 4Zm6 0a1.999 1.999 0 1 0 0-4 1.999 1.999 0 1 0 0 4Zm6 0a1.999 1.999 0 1 0 0-4 1.999 1.999 0 1 0 0 4Zm0 0"/>
</svg>
